<svg xmlns="http://www.w3.org/2000/svg" width="16" height="16" viewBox="0 0 16 16">
    <path fill="#FFF" fill-rule="evenodd" d="M15.601 12.483L12.7 10.549s-.507-.461-1.22-.07l-1.75.968s-1.755-1.395-2.727-2.45c-1.056-.973-2.45-2.727-2.45-2.727l.967-1.75c.391-.714-.07-1.22-.07-1.22L3.518.398c-.346-.484-.76-.392-.76-.392C2.227.03.662 1.504.662 1.504-.167 2.24.017 2.886.017 2.886c.557 3.942 4.705 7.743 5.022 8.074.428.398 4.132 4.466 8.075 5.023 0 0 .645.184 1.382-.645 0 0 1.473-1.566 1.497-2.096 0 0 .092-.414-.392-.76z"/>
</svg>
