<svg xmlns="http://www.w3.org/2000/svg" xmlns:xlink="http://www.w3.org/1999/xlink" width="14" height="16" viewBox="0 0 14 16">
    <defs>
        <path id="a" d="M0 .49h11.724v11.388H0z"/>
        <path id="c" d="M.814.022H5.9V5.6H.814z"/>
    </defs>
    <g fill="none" fill-rule="evenodd">
        <path fill="#FEFEFE" d="M5.862 1.639C3.106 1.639.864 3.817.864 6.494c0 2.677 2.242 4.855 4.998 4.855 2.756 0 4.998-2.178 4.998-4.855 0-2.677-2.242-4.855-4.998-4.855m0 10.084C2.894 11.723.48 9.377.48 6.494s2.415-5.23 5.383-5.23 5.384 2.347 5.384 5.23c0 2.883-2.416 5.229-5.384 5.229"/>
        <g transform="translate(0 .31)">
            <mask id="b" fill="#fff">
                <use xlink:href="#a"/>
            </mask>
            <path fill="#FEFEFE" d="M5.863 1.794c-2.492 0-4.52 1.97-4.52 4.39 0 2.422 2.028 4.391 4.52 4.391 2.492 0 4.52-1.97 4.52-4.39s-2.028-4.39-4.52-4.39m0 10.083C2.63 11.878 0 9.325 0 6.185 0 3.045 2.63.49 5.863.49c3.232 0 5.86 2.554 5.86 5.695 0 3.14-2.628 5.693-5.86 5.693" mask="url(#b)"/>
        </g>
        <path fill="#FEFEFE" d="M12.641 15.044a.192.192 0 0 1-.146-.065L8.75 10.704a.184.184 0 0 1 .022-.264.197.197 0 0 1 .272.021l3.743 4.275c.069.079.06.196-.022.264a.194.194 0 0 1-.125.044"/>
        <g transform="translate(7.412 9.91)">
            <mask id="d" fill="#fff">
                <use xlink:href="#c"/>
            </mask>
            <path fill="#FEFEFE" d="M5.23 5.6a.683.683 0 0 1-.51-.227L.974 1.096a.635.635 0 0 1 .077-.92.686.686 0 0 1 .945.074L5.74 4.526a.642.642 0 0 1-.076.919.683.683 0 0 1-.435.155" mask="url(#d)"/>
        </g>
    </g>
</svg>
